<?xml version="1.0" encoding="UTF-8"?>
<!DOCTYPE svg PUBLIC "-//W3C//DTD SVG 1.1//EN" "http://www.w3.org/Graphics/SVG/1.1/DTD/svg11.dtd">
<!-- Creator: CorelDRAW X7 -->
<svg xmlns="http://www.w3.org/2000/svg" xml:space="preserve" width="5.5305mm" height="5.5304mm" version="1.1" style="shape-rendering:geometricPrecision; text-rendering:geometricPrecision; image-rendering:optimizeQuality; fill-rule:evenodd; clip-rule:evenodd"
viewBox="0 0 14 14"
 xmlns:xlink="http://www.w3.org/1999/xlink">
 <defs>
  <style type="text/css">
   <![CDATA[
    .fil0 {fill:none}
    .fil1 {fill:white}
   ]]>
  </style>
 </defs>
 <g id="Layer_x0020_1">
  <metadata id="CorelCorpID_0Corel-Layer"/>
  <rect class="fil0" width="14.2144" height="14.2144"/>
  <path class="fil1" d="M4 10c0,0 0,1 0,1l3 3c0,0 0,0 0,0l3 -3c1,0 0,-1 0,-1l-2 0 0 -6 2 0c0,0 1,0 0,-1l-3 -3c0,0 0,0 0,0l-3 3c0,1 0,1 0,1l2 0 0 6 -2 0z"/>
 </g>
</svg>
