<?xml version="1.0" encoding="UTF-8"?>
<!DOCTYPE svg PUBLIC "-//W3C//DTD SVG 1.1//EN" "http://www.w3.org/Graphics/SVG/1.1/DTD/svg11.dtd">
<!-- Creator: CorelDRAW X7 -->
<svg xmlns="http://www.w3.org/2000/svg" xml:space="preserve" width="0.442134in" height="0.393776in" version="1.1" style="shape-rendering:geometricPrecision; text-rendering:geometricPrecision; image-rendering:optimizeQuality; fill-rule:evenodd; clip-rule:evenodd"
viewBox="0 0 196 174"
 xmlns:xlink="http://www.w3.org/1999/xlink">
 <defs>
  <style type="text/css">
   <![CDATA[
    .fil0 {fill:white}
    .fil1 {fill:url(#id4)}
    .fil6 {fill:url(#id5)}
    .fil2 {fill:url(#id6)}
    .fil3 {fill:url(#id7)}
    .fil4 {fill:url(#id8)}
    .fil5 {fill:url(#id9)}
   ]]>
  </style>
   <mask id="id0">
  <linearGradient id="id1" gradientUnits="userSpaceOnUse" x1="134.59" y1="67.8997" x2="134.59" y2="85.7718">
   <stop offset="0" style="stop-opacity:1; stop-color:white"/>
   <stop offset="1" style="stop-opacity:0; stop-color:white"/>
  </linearGradient>
    <rect style="fill:url(#id1)" x="103" y="60" width="63.0042" height="32.8655"/>
   </mask>
   <mask id="id2">
  <linearGradient id="id3" gradientUnits="userSpaceOnUse" x1="134.59" y1="115.844" x2="134.59" y2="97.7592">
   <stop offset="0" style="stop-opacity:1; stop-color:white"/>
   <stop offset="1" style="stop-opacity:0; stop-color:white"/>
  </linearGradient>
    <rect style="fill:url(#id3)" x="103" y="90" width="63.0077" height="33.2215"/>
   </mask>
  <linearGradient id="id4" gradientUnits="userSpaceOnUse" x1="54.4729" y1="4.04931" x2="109.693" y2="154.376">
   <stop offset="0" style="stop-opacity:1; stop-color:#FFFF66"/>
   <stop offset="1" style="stop-opacity:1; stop-color:#BDBD1B"/>
  </linearGradient>
  <linearGradient id="id5" gradientUnits="userSpaceOnUse" x1="135.698" y1="58.5292" x2="133.482" y2="126.158">
   <stop offset="0" style="stop-opacity:1; stop-color:#0A5EA6"/>
   <stop offset="1" style="stop-opacity:1; stop-color:#00F6FA"/>
  </linearGradient>
  <linearGradient id="id6" gradientUnits="userSpaceOnUse" xlink:href="#id4" x1="53.7384" y1="52.2258" x2="85.9358" y2="139.873">
  </linearGradient>
  <linearGradient id="id7" gradientUnits="userSpaceOnUse" xlink:href="#id4" x1="130.122" y1="48.8552" x2="168.168" y2="152.428">
  </linearGradient>
  <linearGradient id="id8" gradientUnits="userSpaceOnUse" x1="116.436" y1="47.8258" x2="152.337" y2="136.862">
   <stop offset="0" style="stop-opacity:1; stop-color:#6C7D8D"/>
   <stop offset="0.501961" style="stop-opacity:1; stop-color:#ECEEF0"/>
   <stop offset="1" style="stop-opacity:1; stop-color:#919DA9"/>
  </linearGradient>
  <linearGradient id="id9" gradientUnits="userSpaceOnUse" x1="61.1113" y1="130.223" x2="94.1461" y2="167.979">
   <stop offset="0" style="stop-opacity:1; stop-color:#6C7D8D"/>
   <stop offset="0.721569" style="stop-opacity:1; stop-color:#7E8D9B"/>
   <stop offset="0.501961" style="stop-opacity:1; stop-color:#ECEEF0"/>
   <stop offset="1" style="stop-opacity:1; stop-color:#919DA9"/>
  </linearGradient>
 </defs>
 <g id="Layer_x0020_1">
  <metadata id="CorelCorpID_0Corel-Layer"/>
  <path class="fil0" d="M42 42l153 0 0 93 -23 24 -70 0 10 -10c-23,-14 -32,-25 -35,-35l-35 36 0 -108z"/>
  <path class="fil1" d="M15 0l7 0 8 0 29 0c8,0 14,7 14,15l0 3 71 0c13,0 20,5 20,12l0 0 -91 0 0 0 -43 0 0 114c0,8 -6,14 -14,14l-1 0c-8,0 -15,-6 -15,-14l0 -129c0,-8 7,-15 15,-15z"/>
  <path class="fil2" d="M42 42l56 0c-24,20 -29,44 -21,72l-35 36 0 -108z"/>
  <path class="fil3" d="M196 42l-24 0 0 2c14,11 23,28 23,48 0,34 -27,61 -61,61 -8,0 -15,-1 -22,-4l-10 10 70 0c13,0 24,-11 24,-24l0 -93z"/>
  <path class="fil4" d="M98 124c-8,-8 -12,-20 -12,-32 0,-27 22,-48 48,-48 27,0 49,21 49,48 0,27 -22,49 -49,49 -12,0 -23,-5 -31,-12l-5 -5zm36 2c19,0 34,-15 34,-34 0,-18 -15,-33 -34,-33 -18,0 -33,15 -33,33 0,19 15,34 33,34z"/>
  <polygon class="fil5" points="90,126 96,126 98,124 103,129 101,131 101,137 63,174 52,163 "/>
  <path class="fil6" d="M135 58c18,0 34,15 34,34 0,19 -16,34 -34,34 -19,0 -35,-15 -35,-34 0,-19 16,-34 35,-34z"/>
  <path class="fil0" style="mask:url(#id0)" d="M135 62c16,0 29,13 30,30l-60 0c0,-17 13,-30 30,-30z"/>
  <path class="fil0" style="mask:url(#id2)" d="M165 92l0 0c0,16 -14,30 -30,30 -17,0 -30,-14 -30,-30l0 0 60 0z"/>
 </g>
</svg>
