<?xml version="1.0" encoding="UTF-8" standalone="no"?><!DOCTYPE svg PUBLIC "-//W3C//DTD SVG 1.1//EN" "http://www.w3.org/Graphics/SVG/1.1/DTD/svg11.dtd"><svg width="100%" height="100%" viewBox="0 0 5 6" version="1.1" xmlns="http://www.w3.org/2000/svg" xmlns:xlink="http://www.w3.org/1999/xlink" xml:space="preserve" style="fill-rule:evenodd;clip-rule:evenodd;stroke-linejoin:round;stroke-miterlimit:1.41421;"><path d="M3.9,5.01c0,0.215 -0.175,0.39 -0.39,0.39l-2.4,0c-0.215,0 -0.39,-0.175 -0.39,-0.39l0,-4.29l3.18,0l0,4.29Zm0.42,-4.29l0.3,0l0,-0.42l-1.8,0l0,-0.3l-1.02,0l0,0.3l-1.8,0l0,0.42l0.3,0l0,4.29c0,0.447 0.364,0.81 0.81,0.81l2.4,0c0.447,0 0.81,-0.363 0.81,-0.81l0,-4.29Z" style="fill:#7f7f7f;fill-rule:nonzero;"/><rect x="1.5" y="1.8" width="0.42" height="2.52" style="fill:#7f7f7f;fill-rule:nonzero;"/><rect x="2.7" y="1.8" width="0.42" height="2.52" style="fill:#7f7f7f;fill-rule:nonzero;"/></svg>