<?xml version="1.0" encoding="UTF-8" standalone="no"?><!DOCTYPE svg PUBLIC "-//W3C//DTD SVG 1.1//EN" "http://www.w3.org/Graphics/SVG/1.1/DTD/svg11.dtd"><svg width="100%" height="100%" viewBox="0 0 6 6" version="1.1" xmlns="http://www.w3.org/2000/svg" xmlns:xlink="http://www.w3.org/1999/xlink" xml:space="preserve" style="fill-rule:evenodd;clip-rule:evenodd;stroke-linejoin:round;stroke-miterlimit:1.41421;"><path d="M1.32,0l-1.32,0l0,1.32l0.42,0l0,-0.9l0.9,0l0,-0.42Z" style="fill:#7f7f7f;fill-rule:nonzero;"/><path d="M0,4.5l0,1.32l1.32,0l0,-0.42l-0.9,0l0,-0.9l-0.42,0Z" style="fill:#7f7f7f;fill-rule:nonzero;"/><path d="M5.4,4.5l0,0.9l-0.9,0l0,0.42l1.32,0l0,-1.32l-0.42,0Z" style="fill:#7f7f7f;fill-rule:nonzero;"/><path d="M5.82,1.32l0,-1.32l-1.32,0l0,0.42l0.9,0l0,0.9l0.42,0Z" style="fill:#7f7f7f;fill-rule:nonzero;"/><rect x="0" y="2.1" width="0.42" height="1.62" style="fill:#7f7f7f;fill-rule:nonzero;"/><rect x="2.1" y="5.4" width="1.62" height="0.42" style="fill:#7f7f7f;fill-rule:nonzero;"/><rect x="5.4" y="2.1" width="0.42" height="1.62" style="fill:#7f7f7f;fill-rule:nonzero;"/><rect x="2.1" y="0" width="1.62" height="0.42" style="fill:#7f7f7f;fill-rule:nonzero;"/><path d="M4.02,2.7l-0.9,0l0,-0.9l-0.42,0l0,0.9l-0.9,0l0,0.42l0.9,0l0,0.9l0.42,0l0,-0.9l0.9,0l0,-0.42Z" style="fill:#7f7f7f;fill-rule:nonzero;"/></svg>