<?xml version="1.0" encoding="UTF-8" standalone="no"?><!DOCTYPE svg PUBLIC "-//W3C//DTD SVG 1.1//EN" "http://www.w3.org/Graphics/SVG/1.1/DTD/svg11.dtd"><svg width="100%" height="100%" viewBox="0 0 8 6" version="1.1" xmlns="http://www.w3.org/2000/svg" xmlns:xlink="http://www.w3.org/1999/xlink" xml:space="preserve" style="fill-rule:evenodd;clip-rule:evenodd;stroke-linejoin:round;stroke-miterlimit:1.41421;"><path d="M0.648,0.546l1.023,0l0,-0.546l-1.671,0l0,1.671l0.546,0l0,-1.023c0,-0.056 0.046,-0.102 0.102,-0.102" style="fill:#7f7f7f;fill-rule:nonzero;"/><path d="M7.296,1.671l0,-1.671l-1.671,0l0,0.546l1.023,0c0.056,0 0.102,0.046 0.102,0.102l0,1.023l0.546,0Z" style="fill:#7f7f7f;fill-rule:nonzero;"/><path d="M7.296,5.796l0,-1.671l-0.546,0l0,1.023c0,0.056 -0.046,0.102 -0.102,0.102l-1.023,0l0,0.546l1.671,0Z" style="fill:#7f7f7f;fill-rule:nonzero;"/><path d="M0,4.125l0,1.671l1.671,0l0,-0.546l-1.023,0c-0.056,0 -0.102,-0.046 -0.102,-0.102l0,-1.023l-0.546,0Z" style="fill:#7f7f7f;fill-rule:nonzero;"/><path d="M5.25,3.648c0,0.056 -0.046,0.102 -0.102,0.102l-3,0c-0.056,0 -0.102,-0.046 -0.102,-0.102l0,-1.5c0,-0.056 0.046,-0.102 0.102,-0.102l3,0c0.056,0 0.102,0.046 0.102,0.102l0,1.5Zm-3.75,0.648l4.296,0l0,-2.796l-4.296,0l0,2.796Z" style="fill:#7f7f7f;fill-rule:nonzero;"/></svg>