<?xml version="1.0" encoding="UTF-8"?>
<!DOCTYPE svg PUBLIC "-//W3C//DTD SVG 1.1//EN" "http://www.w3.org/Graphics/SVG/1.1/DTD/svg11.dtd">
<!-- Creator: CorelDRAW X7 -->
<svg xmlns="http://www.w3.org/2000/svg" xml:space="preserve" width="0.442236in" height="0.439925in" version="1.1" style="shape-rendering:geometricPrecision; text-rendering:geometricPrecision; image-rendering:optimizeQuality; fill-rule:evenodd; clip-rule:evenodd"
viewBox="0 0 30 30"
 xmlns:xlink="http://www.w3.org/1999/xlink">
 <defs>
  <style type="text/css">
   <![CDATA[
    .fil3 {fill:#0DBFBA}
    .fil2 {fill:#1BCEB8}
    .fil5 {fill:#333333}
    .fil4 {fill:#B1BCBC}
    .fil0 {fill:#C8CECE}
    .fil1 {fill:white}
   ]]>
  </style>
 </defs>
 <g id="Layer_x0020_1">
  <metadata id="CorelCorpID_0Corel-Layer"/>
  <g id="_3197800099264">
   <path class="fil0" d="M0 0l30 0 0 30 -30 0 0 -30zm2 1l26 0 0 27 -26 0 0 -27z"/>
   <polygon class="fil1" points="2,1 28,1 28,28 2,28 "/>
   <path class="fil2" d="M5 3l20 0c1,0 1,1 1,2l0 12 -9 0 0 9 -12 0c-1,0 -1,0 -1,-1l0 -20c0,-1 0,-2 1,-2z"/>
   <path class="fil3" d="M5 3l20 0c1,0 1,1 1,2l0 12 -9 0 -13 -13c0,0 1,-1 1,-1z"/>
   <polygon class="fil0" points="19,19 30,19 30,30 19,30 "/>
   <polygon class="fil0" points="19,19 30,19 30,30 19,19 "/>
   <polygon class="fil4" points="19,19 30,19 30,30 19,19 "/>
   <path class="fil5" d="M23 23c-1,0 -1,0 -1,0 -1,0 -1,1 0,1l2 2c0,1 1,1 1,0l2 -2c1,0 1,-1 0,-1 0,0 0,0 -1,0l-2 2 -1 -2z"/>
   <path class="fil1" d="M23 23c-1,-1 -1,-1 -1,0 -1,0 -1,0 0,1l2 2c0,0 1,0 1,0l2 -2c1,-1 1,-1 0,-1 0,-1 0,-1 -1,0l-2 2 -1 -2z"/>
   <polygon class="fil4" points="2,1 28,1 28,28 28,28 30,30 30,0 0,0 "/>
  </g>
 </g>
</svg>
