<svg xmlns="http://www.w3.org/2000/svg" viewBox="0 0 33.69 14.02"><title>Asset 4</title><rect x="0.96" y="0.96" width="31.76" height="12.09" fill="#fff"/><path d="M33.69,14H0V0H33.69ZM1.93,12.09H31.76V1.93H1.93Z" fill="#217346"/><path d="M9.47,6.13l1.1-2H12L10.25,7,12,10H10.6l-1.12-2L8.35,10H6.95L8.7,7,7,4.12H8.38Z" fill="#217346"/><path d="M13.81,9h2.56v1H12.61V4.12h1.21Z" fill="#217346"/><path d="M20.1,8.43a.62.62,0,0,0-.24-.52A3.17,3.17,0,0,0,19,7.52a6.13,6.13,0,0,1-1-.4,1.62,1.62,0,0,1-1-1.45,1.41,1.41,0,0,1,.27-.85A1.74,1.74,0,0,1,18,4.25,2.89,2.89,0,0,1,19.16,4a2.63,2.63,0,0,1,1.12.23,1.78,1.78,0,0,1,.76.64,1.68,1.68,0,0,1,.27.94H20.1a.79.79,0,0,0-.25-.62A1,1,0,0,0,19.14,5a1.11,1.11,0,0,0-.69.19.59.59,0,0,0-.24.49.56.56,0,0,0,.29.48,3.25,3.25,0,0,0,.85.36,3.66,3.66,0,0,1,1.5.77,1.53,1.53,0,0,1,.47,1.14,1.41,1.41,0,0,1-.57,1.19,2.52,2.52,0,0,1-1.55.43A3,3,0,0,1,18,9.8a2,2,0,0,1-.85-.68,1.73,1.73,0,0,1-.29-1H18q0,1,1.16,1a1.13,1.13,0,0,0,.67-.17A.57.57,0,0,0,20.1,8.43Z" fill="#217346"/><path d="M24.22,6.13l1.1-2H26.7L25,7,26.74,10h-1.4l-1.12-2-1.13,2h-1.4L23.44,7l-1.7-2.9h1.39Z" fill="#217346"/></svg>