<?xml version="1.0" encoding="UTF-8" standalone="no"?><!DOCTYPE svg PUBLIC "-//W3C//DTD SVG 1.1//EN" "http://www.w3.org/Graphics/SVG/1.1/DTD/svg11.dtd"><svg width="100%" height="100%" viewBox="0 0 7 7" version="1.1" xmlns="http://www.w3.org/2000/svg" xmlns:xlink="http://www.w3.org/1999/xlink" xml:space="preserve" style="fill-rule:evenodd;clip-rule:evenodd;stroke-linejoin:round;stroke-miterlimit:1.41421;"><path d="M3.152,6.3c0.845,0 1.636,-0.327 2.231,-0.92c0.596,-0.594 0.925,-1.385 0.925,-2.226c0.001,-1.737 -1.413,-3.152 -3.153,-3.154l-0.003,0c-0.842,0 -1.633,0.327 -2.228,0.92c-0.575,0.573 -0.901,1.329 -0.924,2.136l0.469,0c0.023,-0.682 0.299,-1.32 0.786,-1.804c0.507,-0.505 1.18,-0.783 1.897,-0.783c1.484,0.001 2.688,1.206 2.688,2.684c-0.001,0.716 -0.28,1.389 -0.788,1.895c-0.506,0.505 -1.18,0.784 -1.896,0.784c-0.815,-0.001 -1.576,-0.367 -2.092,-1.003l-0.118,-0.147l1.144,0l0,-0.469l-1.766,0l0,1.766l0.469,0l0,-0.733l0.153,0.149c0.596,0.583 1.38,0.904 2.206,0.905" style="fill:#7f7f7f;fill-rule:nonzero;"/></svg>