<?xml version="1.0" encoding="UTF-8"?>
<!DOCTYPE svg PUBLIC "-//W3C//DTD SVG 1.1//EN" "http://www.w3.org/Graphics/SVG/1.1/DTD/svg11.dtd">
<!-- Creator: CorelDRAW X7 -->
<svg xmlns="http://www.w3.org/2000/svg" xml:space="preserve" width="0.442236in" height="0.442236in" version="1.1" style="shape-rendering:geometricPrecision; text-rendering:geometricPrecision; image-rendering:optimizeQuality; fill-rule:evenodd; clip-rule:evenodd"
viewBox="0 0 39 39"
 xmlns:xlink="http://www.w3.org/1999/xlink">
 <defs>
  <style type="text/css">
   <![CDATA[
    .fil3 {fill:#E6695C}
    .fil2 {fill:#ECF1F4}
    .fil4 {fill:#DC5747}
    .fil1 {fill:#CCCCCC}
    .fil0 {fill:#E6E6E6}
   ]]>
  </style>
 </defs>
 <g id="Layer_x0020_1">
  <metadata id="CorelCorpID_0Corel-Layer"/>
  <g id="_3197801351776">
   <polygon class="fil0" points="31,34 9,34 9,31 5,31 5,9 9,9 9,5 31,5 31,9 34,9 34,31 31,31 "/>
   <path class="fil1" d="M9 9l0 -4 22 0 0 4 3 0 0 22 -3 0c-3,-4 -22,-22 -22,-22z"/>
   <g>
    <g>
     <path class="fil2" d="M34 31l-3 0 0 3 -22 0 0 -3 -4 0 0 -22 4 0 0 -4 22 0 0 4 3 0 0 22zm4 7l-6 0 0 -6 6 0 0 6zm-31 0l-6 0 0 -6 6 0 0 6zm-6 -37l6 0 0 6 -6 0 0 -6zm31 0l6 0 0 6 -6 0 0 -6zm7 8l0 -9 -8 0 0 4 -22 0 0 -4 -9 0 0 9 4 0 0 22 -4 0 0 8 9 0 0 -3 22 0 0 3 8 0 0 -8 -3 0 0 -22 3 0z"/>
     <polygon class="fil3" points="18,14 12,14 12,10 27,10 27,14 22,14 22,29 18,29 18,14 "/>
    </g>
    <path class="fil1" d="M0 0l1 1 6 0 0 6 2 2 0 -4 22 0 0 4 3 0 0 22 -3 0 1 1 6 0 0 6 1 1 0 -8 -3 0 0 -22 3 0 0 -9 -8 0 0 4 -22 0 0 -4 -9 0zm32 1l6 0 0 6 -6 0 0 -6z"/>
    <polygon class="fil4" points="12,12 14,14 18,14 18,14 18,18 22,22 22,14 27,14 27,10 12,10 "/>
   </g>
  </g>
 </g>
</svg>
