<?xml version="1.0" encoding="UTF-8" standalone="no"?><!DOCTYPE svg PUBLIC "-//W3C//DTD SVG 1.1//EN" "http://www.w3.org/Graphics/SVG/1.1/DTD/svg11.dtd"><svg width="100%" height="100%" viewBox="0 0 6 6" version="1.1" xmlns="http://www.w3.org/2000/svg" xmlns:xlink="http://www.w3.org/1999/xlink" xml:space="preserve" style="fill-rule:evenodd;clip-rule:evenodd;stroke-linejoin:round;stroke-miterlimit:1.41421;"><path d="M5.416,1.242l0,4.262c0,0.017 -0.013,0.03 -0.03,0.03l-0.476,0c-0.016,0 -0.03,-0.013 -0.03,-0.03l0,-2.442l-4.056,0l0,2.442c0,0.017 -0.013,0.03 -0.03,0.03l-0.358,0c-0.016,0 -0.03,-0.013 -0.03,-0.03l0,-5.067c0,-0.017 0.014,-0.03 0.03,-0.03l0.593,0c0.017,0 0.03,0.013 0.03,0.03l0,1.853l3.468,0l0,-1.853c0,-0.017 0.014,-0.03 0.03,-0.03l0.023,0c0.008,0 0.016,0.003 0.022,0.009l0.805,0.804c0.006,0.006 0.009,0.014 0.009,0.022m-0.942,4.262c0,0.017 -0.014,0.03 -0.03,0.03l-3.184,0c-0.017,0 -0.03,-0.013 -0.03,-0.03l0,-2.007c0,-0.016 0.013,-0.03 0.03,-0.03l3.184,0c0.016,0 0.03,0.014 0.03,0.03l0,2.007Zm-3.008,-5.067c0,-0.017 0.013,-0.03 0.03,-0.03l2.595,0c0.016,0 0.03,0.013 0.03,0.03l0,1.417c0,0.017 -0.014,0.03 -0.03,0.03l-2.595,0c-0.017,0 -0.03,-0.013 -0.03,-0.03l0,-1.417Zm-1.265,-0.437c-0.111,0 -0.201,0.09 -0.201,0.201l0,5.538c0,0.111 0.09,0.201 0.201,0.201l5.42,0c0.111,0 0.201,-0.09 0.201,-0.201l0,-4.678l-1.061,-1.061l-4.56,0Z" style="fill:#7f7f7f;fill-rule:nonzero;"/></svg>