<?xml version="1.0" encoding="UTF-8" standalone="no"?><!DOCTYPE svg PUBLIC "-//W3C//DTD SVG 1.1//EN" "http://www.w3.org/Graphics/SVG/1.1/DTD/svg11.dtd"><svg width="100%" height="100%" viewBox="0 0 21 18" version="1.1" xmlns="http://www.w3.org/2000/svg" xmlns:xlink="http://www.w3.org/1999/xlink" xml:space="preserve" style="fill-rule:evenodd;clip-rule:evenodd;stroke-linejoin:round;stroke-miterlimit:1.41421;"><path d="M1.278,2.66c1.244,-1.675 3.213,-2.663 5.3,-2.66c3.59,0.012 6.537,2.97 6.537,6.56c0,0.968 -0.214,1.924 -0.627,2.8l1.31,1l0.31,-0.42l6.47,4.74l-2.12,2.87l-6.47,-4.77l0.31,-0.42l-1.32,-1c-1.199,1.108 -2.768,1.732 -4.4,1.75c-0.006,0 -0.012,0 -0.018,0c-3.599,0 -6.56,-2.961 -6.56,-6.56c0,-1.4 0.448,-2.763 1.278,-3.89Zm17.01,13.74l1.13,-1.54l-5.14,-3.8l-1.14,1.54l5.15,3.8Zm-5.5,-4.7l0.52,-0.7l-1.2,-0.88l-0.52,0.7l1.2,0.88Zm-11.89,-4.29c0.424,2.794 2.854,4.877 5.68,4.87c1.801,0 3.502,-0.845 4.59,-2.28c0.745,-0.992 1.147,-2.2 1.147,-3.44c0,-3.143 -2.586,-5.73 -5.73,-5.73c-0.002,0 -0.005,0 -0.007,0c-1.817,0.005 -3.528,0.87 -4.61,2.33c-0.91,1.216 -1.295,2.748 -1.07,4.25Z" style="fill:#a0bed6;fill-rule:nonzero;"/></svg>