<svg xmlns="http://www.w3.org/2000/svg" viewBox="0 0 87.86 90.2"><title>type-xlsx-big</title><rect width="72.69" height="83.43" style="fill:#fff"/><path d="M71.46,85.42H.45V.45H72.93V84A1.46,1.46,0,0,1,70,84V3.38H3.38v79.1H71.46a1.46,1.46,0,0,1,0,2.93Z" style="fill:#217346"/><path d="M71.46,85.87H0V0H73.38V84A1.92,1.92,0,0,1,71.46,85.87Zm-1-2.93v1a1,1,0,1,0,1-1ZM.91,85H69.83a1.91,1.91,0,0,1-.29-1v-1H2.93v-80H70.45V82h1a1.91,1.91,0,0,1,1,.29V.91H.91ZM3.84,82H69.54V3.84H3.84Z" style="fill:#217346"/><path d="M72.93,15.6H.45V.45H72.93ZM3.38,12.67H70V3.38H3.38Z" style="fill:#217346"/><path d="M73.38,16.05H0V0H73.38ZM.91,15.14H72.47V.91H.91Zm69.54-2H2.93V2.93H70.45ZM3.84,12.21H69.54V3.84H3.84Z" style="fill:#217346"/><rect x="27.93" y="5.99" width="4.07" height="4.07" style="fill:#217346"/><path d="M32.46,10.52h-5v-5h5Zm-4.07-.91h3.16V6.44H28.38Z" style="fill:#217346"/><rect x="17.97" y="5.99" width="4.07" height="4.07" style="fill:#217346"/><path d="M22.5,10.52h-5v-5h5Zm-4.07-.91h3.16V6.44H18.43Z" style="fill:#217346"/><rect x="7.94" y="5.99" width="4.07" height="4.07" style="fill:#217346"/><path d="M12.47,10.52h-5v-5h5ZM8.39,9.61h3.16V6.44H8.39Z" style="fill:#217346"/><polygon points="11.14 76.38 8.81 74.61 24.82 53.39 33.16 59.77 44.14 36.28 55.92 43.31 64.16 30.65 66.61 32.25 56.84 47.27 45.42 40.46 34.27 64.32 25.38 57.51 11.14 76.38" style="fill:#217346"/><path d="M11.23,77,8.17,74.7l16.57-22L33,59.07l11-23.44,11.84,7.06L64,30l3.22,2.09L57,47.88,45.62,41.1,34.44,65l-9-6.87ZM9.44,74.52l1.61,1.22L25.3,56.87l8.8,6.74,11.13-23.8L56.7,46.65,66,32.38l-1.69-1.1L56.07,43.92l-11.73-7-11,23.55L24.91,54Z" style="fill:#217346"/><rect x="15.69" y="29.98" width="13.93" height="2.93" style="fill:#217346"/><path d="M30.08,33.37H15.24V29.53H30.08Zm-13.93-.91h13v-2h-13Z" style="fill:#217346"/><rect x="15.69" y="35.83" width="13.93" height="2.93" style="fill:#217346"/><path d="M30.08,39.21H15.24V35.37H30.08ZM16.15,38.3h13v-2h-13Z" style="fill:#217346"/><rect x="15.69" y="41.67" width="13.93" height="2.93" style="fill:#217346"/><path d="M30.08,45.05H15.24V41.21H30.08Zm-13.93-.91h13v-2h-13Z" style="fill:#217346"/><polygon points="38.08 76.96 8.51 76.96 8.51 50.74 11.44 50.74 11.44 74.03 38.08 74.03 38.08 76.96" style="fill:#217346"/><path d="M38.54,77.42H8.06V50.29h3.84V73.58H38.54ZM9,76.51H37.63v-2H11V51.2H9Z" style="fill:#217346"/><rect x="26.04" y="65.54" width="60" height="22.84" style="fill:#fff"/><path d="M87.86,90.2H24.22V63.72H87.86Zm-60-3.64H84.22V67.36H27.86Z" style="fill:#217346"/><path d="M42,75.31,44.1,71.5h2.62L43.5,77l3.3,5.57H44.16L42,78.68l-2.13,3.87H37.26L40.56,77,37.34,71.5H40Z" style="fill:#217346"/><path d="M50.23,80.72h4.83v1.83H48v-11h2.28Z" style="fill:#217346"/><path d="M62.1,79.65a1.17,1.17,0,0,0-.45-1A6,6,0,0,0,60,77.93a11.58,11.58,0,0,1-1.87-.76,3.06,3.06,0,0,1-1.88-2.74,2.67,2.67,0,0,1,.5-1.6,3.29,3.29,0,0,1,1.45-1.1,5.46,5.46,0,0,1,2.12-.39,5,5,0,0,1,2.11.43A3.36,3.36,0,0,1,63.87,73a3.17,3.17,0,0,1,.51,1.78H62.1a1.49,1.49,0,0,0-.48-1.18,2,2,0,0,0-1.34-.42,2.1,2.1,0,0,0-1.3.35,1.11,1.11,0,0,0-.46.93,1.07,1.07,0,0,0,.54.9,6.14,6.14,0,0,0,1.6.68,6.91,6.91,0,0,1,2.83,1.45,2.89,2.89,0,0,1,.89,2.16,2.66,2.66,0,0,1-1.09,2.25,4.75,4.75,0,0,1-2.92.82,5.64,5.64,0,0,1-2.32-.47A3.68,3.68,0,0,1,56.45,81a3.28,3.28,0,0,1-.55-1.88h2.28q0,1.83,2.19,1.83a2.13,2.13,0,0,0,1.27-.33A1.07,1.07,0,0,0,62.1,79.65Z" style="fill:#217346"/><path d="M69.87,75.31l2.07-3.81h2.62L71.35,77l3.3,5.57H72l-2.12-3.87-2.13,3.87H65.1L68.4,77,65.18,71.5H67.8Z" style="fill:#217346"/></svg>