<?xml version="1.0" encoding="UTF-8" standalone="no"?><!DOCTYPE svg PUBLIC "-//W3C//DTD SVG 1.1//EN" "http://www.w3.org/Graphics/SVG/1.1/DTD/svg11.dtd"><svg width="100%" height="100%" viewBox="0 0 6 6" version="1.1" xmlns="http://www.w3.org/2000/svg" xmlns:xlink="http://www.w3.org/1999/xlink" xml:space="preserve" style="fill-rule:evenodd;clip-rule:evenodd;stroke-linejoin:round;stroke-miterlimit:1.41421;"><path d="M1.8,2.7l0,0.899l-1.44,0l0,-2.039l5.039,0l0,2.039l-1.439,0l0,-0.899l-2.16,0Zm1.8,2.291l-0.72,-0.473l-0.72,0.473l0,-1.931l1.44,0l0,1.931Zm-3.24,-4.631l5.039,0l0,0.84l-5.039,0l0,-0.84Zm5.399,3.119l0,-2.999c0,-0.265 -0.215,-0.48 -0.48,-0.48l-4.799,0c-0.264,0 -0.48,0.215 -0.48,0.48l0,2.999c0,0.265 0.216,0.48 0.48,0.48l1.32,0l0,1.699l1.08,-0.709l1.08,0.709l0,-1.699l1.319,0c0.265,0 0.48,-0.215 0.48,-0.48" style="fill:#7f7f7f;fill-rule:nonzero;"/></svg>