<?xml version="1.0" encoding="UTF-8" standalone="no"?><!DOCTYPE svg PUBLIC "-//W3C//DTD SVG 1.1//EN" "http://www.w3.org/Graphics/SVG/1.1/DTD/svg11.dtd"><svg width="100%" height="100%" viewBox="0 0 5 6" version="1.1" xmlns="http://www.w3.org/2000/svg" xmlns:xlink="http://www.w3.org/1999/xlink" xml:space="preserve" style="fill-rule:evenodd;clip-rule:evenodd;stroke-linejoin:round;stroke-miterlimit:1.41421;"><path d="M4.368,2.88l0,2.736l-3.984,0l0,-2.736l3.984,0Zm-1.992,-2.88c-0.794,0 -1.44,0.646 -1.44,1.44l0,1.056l-0.432,0c-0.278,0 -0.504,0.226 -0.504,0.504l0,2.496c0,0.278 0.226,0.504 0.504,0.504l3.744,0c0.278,0 0.504,-0.226 0.504,-0.504l0,-2.496c0,-0.278 -0.226,-0.504 -0.504,-0.504l-2.928,0l0,-1.056c0,-0.582 0.474,-1.056 1.056,-1.056c0.542,0 0.989,0.41 1.049,0.936l0.386,0c-0.061,-0.738 -0.681,-1.32 -1.435,-1.32" style="fill:#7f7f7f;fill-rule:nonzero;"/><path d="M2.376,3.744c-0.106,0 -0.192,0.086 -0.192,0.192l0,0.624c0,0.106 0.086,0.192 0.192,0.192c0.106,0 0.192,-0.086 0.192,-0.192l0,-0.624c0,-0.106 -0.086,-0.192 -0.192,-0.192" style="fill:#7f7f7f;fill-rule:nonzero;"/></svg>